<svg width="255" height="57" viewBox="0 0 255 57" fill="none" xmlns="http://www.w3.org/2000/svg">
<path d="M121.3 20.2C112.5 20.2 109.9 25.4 109.9 25.5L109.7 25.9L109.4 25.5C107 21.9 103.6 20.2 98 20.2C89.2 20.2 86.6 25.4 86.6 25.5L86.4 25.9L83.5 21.1H77.3V55.9H86.9V38.6C86.9 31.9 89.2 28.7 94.2 28.7C98.6 28.7 100.6 31.3 100.6 36.9V55.8H110.2V38.3C110.2 31.7 112.5 28.6 117.3 28.6C120.1 28.6 123.9 29.5 123.9 36.9V55.8H133.5V34.1C133.4 24.5 129.6 20.2 121.3 20.2ZM138.2 55.9H148.1V21.1H138.2V55.9ZM61.8 38.4C61.8 42.9 60.4 45.8 58.2 47.3C57.1 48 55.4 48.3 53.8 48.3C48.3 48.3 46.9 45.2 46.9 40V21.1H37.4V42.8C37.4 52.5 42.2 56.9 50.8 56.9C59.9 56.9 62.3 51.2 62.3 51.2L65.2 56H71.4V21.2H61.8V38.4ZM9.89999 7.09998H0V55.9H34.1V46H10V7.09998H9.89999ZM241.9 25.9L239 21.1H232.8V55.9H242.4V42.8C242.4 38.3 243.2 35.4 246 33C249.5 29.9 254.2 29.9 254.2 29.9V20.2C243.9 20.2 241.9 25.9 241.9 25.9ZM209.9 20.2C204.3 20.2 199.5 22.1 196 25.6C192.8 28.9 191 33.5 191 38.5C191 43.5 192.8 48.1 196 51.4C199.5 54.9 204.3 56.8 209.9 56.8C221.1 56.8 228.9 49.3 228.9 38.5C228.9 27.7 221.1 20.2 209.9 20.2ZM209.9 48.7C204.5 48.7 200.5 44.4 200.5 38.5C200.5 32.7 204.5 28.3 209.9 28.3C215.3 28.3 219.4 32.7 219.4 38.5C219.4 44.4 215.4 48.7 209.9 48.7ZM174.2 20.2C165.1 20.2 162.7 25.9 162.7 25.9L159.8 21.1H153.6V55.9H163.2V38.6C163.2 34.1 164.6 31.2 166.8 29.7C167.9 29 169.6 28.7 171.2 28.7C176.7 28.7 178.1 31.8 178.1 37V55.9H187.7V34.2C187.6 24.5 182.8 20.2 174.2 20.2ZM136.1 7.09998L143.2 14.2L150.3 7.09998L143.2 0L136.1 7.09998Z" fill="white"/>
</svg>
